<?xml version="1.0" encoding="UTF-8" standalone="no"?>
<!-- Generator: Adobe Illustrator 18.0.0, SVG Export Plug-In . SVG Version: 6.00 Build 0)  -->

<svg
   xmlns:dc="http://purl.org/dc/elements/1.1/"
   xmlns:cc="http://creativecommons.org/ns#"
   xmlns:rdf="http://www.w3.org/1999/02/22-rdf-syntax-ns#"
   xmlns:svg="http://www.w3.org/2000/svg"
   xmlns="http://www.w3.org/2000/svg"
   xmlns:sodipodi="http://sodipodi.sourceforge.net/DTD/sodipodi-0.dtd"
   xmlns:inkscape="http://www.inkscape.org/namespaces/inkscape"
   version="1.1"
   id="Capa_1"
   x="0px"
   y="0px"
   viewBox="0 0 301.219 301.219"
   style="enable-background:new 0 0 301.219 301.219;"
   xml:space="preserve"
   sodipodi:docname="ascending-sort.svg"
   inkscape:version="0.92.4 5da689c313, 2019-01-14"><metadata
   id="metadata3918"><rdf:RDF><cc:Work
       rdf:about=""><dc:format>image/svg+xml</dc:format><dc:type
         rdf:resource="http://purl.org/dc/dcmitype/StillImage" /><dc:title></dc:title></cc:Work></rdf:RDF></metadata><defs
   id="defs3916" /><sodipodi:namedview
   pagecolor="#ffffff"
   bordercolor="#666666"
   borderopacity="1"
   objecttolerance="10"
   gridtolerance="10"
   guidetolerance="10"
   inkscape:pageopacity="0"
   inkscape:pageshadow="2"
   inkscape:window-width="1440"
   inkscape:window-height="880"
   id="namedview3914"
   showgrid="false"
   inkscape:zoom="2.2541739"
   inkscape:cx="150.6095"
   inkscape:cy="150.6095"
   inkscape:window-x="0"
   inkscape:window-y="0"
   inkscape:window-maximized="1"
   inkscape:current-layer="Capa_1" />
<g
   id="g3881">
	<path
   d="M159.365,23.736v-10c0-5.523-4.477-10-10-10H10c-5.523,0-10,4.477-10,10v10c0,5.523,4.477,10,10,10h139.365   C154.888,33.736,159.365,29.259,159.365,23.736z"
   id="path3869" />
	<path
   d="M130.586,66.736H10c-5.523,0-10,4.477-10,10v10c0,5.523,4.477,10,10,10h120.586c5.523,0,10-4.477,10-10v-10   C140.586,71.213,136.109,66.736,130.586,66.736z"
   id="path3871" />
	<path
   d="M111.805,129.736H10c-5.523,0-10,4.477-10,10v10c0,5.523,4.477,10,10,10h101.805c5.523,0,10-4.477,10-10v-10   C121.805,134.213,117.328,129.736,111.805,129.736z"
   id="path3873" />
	<path
   d="M93.025,199.736H10c-5.523,0-10,4.477-10,10v10c0,5.523,4.477,10,10,10h83.025c5.522,0,10-4.477,10-10v-10   C103.025,204.213,98.548,199.736,93.025,199.736z"
   id="path3875" />
	<path
   d="M74.244,262.736H10c-5.523,0-10,4.477-10,10v10c0,5.523,4.477,10,10,10h64.244c5.522,0,10-4.477,10-10v-10   C84.244,267.213,79.767,262.736,74.244,262.736z"
   id="path3877" />
	<path
   d="M298.29,216.877l-7.071-7.071c-1.875-1.875-4.419-2.929-7.071-2.929c-2.652,0-5.196,1.054-7.072,2.929l-34.393,34.393   V18.736c0-5.523-4.477-10-10-10h-10c-5.523,0-10,4.477-10,10v225.462l-34.393-34.393c-1.876-1.875-4.419-2.929-7.071-2.929   c-2.652,0-5.196,1.054-7.071,2.929l-7.072,7.071c-3.904,3.905-3.904,10.237,0,14.142l63.536,63.536   c1.953,1.953,4.512,2.929,7.071,2.929c2.559,0,5.119-0.976,7.071-2.929l63.536-63.536   C302.195,227.113,302.195,220.781,298.29,216.877z"
   id="path3879" />
</g>
<g
   id="g3883">
</g>
<g
   id="g3885">
</g>
<g
   id="g3887">
</g>
<g
   id="g3889">
</g>
<g
   id="g3891">
</g>
<g
   id="g3893">
</g>
<g
   id="g3895">
</g>
<g
   id="g3897">
</g>
<g
   id="g3899">
</g>
<g
   id="g3901">
</g>
<g
   id="g3903">
</g>
<g
   id="g3905">
</g>
<g
   id="g3907">
</g>
<g
   id="g3909">
</g>
<g
   id="g3911">
</g>
<path
   style="fill:#ff0000;stroke-width:0.44362149"
   d="M 5.6356419,32.462754 C 3.5611883,31.433564 1.9623213,29.613637 0.90096855,27.073462 0.06853854,25.081177 -0.05549155,13.361168 0.72817385,10.745526 1.4228725,8.4268285 3.3958682,6.1608065 5.6847938,5.0527567 l 1.9150852,-0.9270768 72.059334,0.00974 c 68.740627,0.00929 72.141237,0.046949 73.837627,0.8176032 2.21413,1.005857 4.45729,3.5109244 5.11186,5.7087159 0.30981,1.040247 0.44295,4.446726 0.35273,9.025072 -0.14136,7.172695 -0.17513,7.399712 -1.36868,9.201359 -0.67306,1.015971 -2.05587,2.397907 -3.0729,3.070968 l -1.84915,1.22375 -72.564569,0.112722 -72.5645656,0.112722 z"
   id="path3920"
   inkscape:connector-curvature="0" /><path
   style="fill:#ff0000;stroke-width:0.44362149"
   d="M 5.6356419,95.457311 C 3.5611157,94.427753 1.962255,92.60773 0.90096855,90.067714 0.04012477,88.007425 -0.05442002,76.354357 0.76739283,73.603913 1.4617747,71.279955 4.4805261,68.223557 6.7231343,67.573899 7.9503763,67.21838 26.056538,67.116523 71.274008,67.210763 l 62.845202,0.13098 1.92354,1.33361 c 1.25984,0.873464 2.34446,2.163707 3.14349,3.739425 1.17697,2.321034 1.21996,2.65136 1.21996,9.373553 0,6.743339 -0.0393,7.04241 -1.21996,9.28633 -0.73456,1.396082 -1.98745,2.872411 -3.14894,3.710535 l -1.92899,1.391944 -63.283371,0.113027 -63.2833736,0.113026 z"
   id="path3922"
   inkscape:connector-curvature="0" /><path
   style="fill:#ff0000;stroke-width:0.44362149"
   d="m 6.4457684,158.89963 c -2.1508704,-0.8584 -4.1175883,-2.76468 -5.1583086,-4.99978 -0.96371943,-2.06973 -1.05736402,-2.85262 -1.06131536,-8.87288 -0.002414,-3.67822 0.21995211,-7.35145 0.50202941,-8.29294 0.69469865,-2.3187 2.66769435,-4.58472 4.95661995,-5.69277 1.9099569,-0.92459 2.0578967,-0.92708 55.2490852,-0.92708 52.146571,0 53.372051,0.0194 55.043151,0.87195 2.50671,1.27882 4.77009,4.14273 5.32725,6.7407 0.60579,2.82468 0.60579,11.22905 0,14.05373 -0.57577,2.68472 -2.95961,5.62462 -5.49431,6.77592 -1.71661,0.7797 -4.24408,0.81639 -55.033825,0.79886 -33.897796,-0.0117 -53.6326137,-0.17723 -54.3303766,-0.45571 z"
   id="path3924"
   inkscape:connector-curvature="0" /><path
   style="fill:#ff0000;stroke-width:0.44362149"
   d="m 5.4918704,228.24582 c -1.725794,-0.90156 -2.737593,-1.82897 -3.7105353,-3.40105 -1.3183993,-2.13026 -1.33974624,-2.2622 -1.47849258,-9.13809 -0.0795396,-3.94176 0.060431,-7.72091 0.3217686,-8.68763 0.60438118,-2.23568 2.76938578,-4.81655 5.07447308,-6.04921 l 1.8424812,-0.98527 H 51.460093 95.378621 l 1.816488,0.97201 c 2.324497,1.24385 4.439111,3.6553 5.073661,5.78586 0.31011,1.04124 0.44303,4.45748 0.35273,9.06519 l -0.14493,7.39425 -1.33362,1.9218 c -0.87243,1.25722 -2.165569,2.34368 -3.739419,3.14176 l -2.405817,1.21996 H 51.431205 7.8646917 Z"
   id="path3926"
   inkscape:connector-curvature="0" /><path
   style="fill:#ff0000;stroke-width:0.44362149"
   d="m 5.4918704,291.24007 c -1.7257627,-0.90155 -2.7376107,-1.82899 -3.7105353,-3.40101 -1.31582998,-2.12607 -1.34006014,-2.27418 -1.48115334,-9.05343 -0.0907918,-4.36237 0.047644,-7.57449 0.37716926,-8.75143 0.66754488,-2.38424 2.68152348,-4.81867 5.02173318,-6.07011 l 1.8424812,-0.98527 H 42.144042 76.746518 l 1.829589,0.9787 c 2.265357,1.2118 3.844778,3.04791 4.821282,5.60484 1.036983,2.71531 0.824435,15.33133 -0.29283,17.38124 -1.069704,1.96265 -3.009093,3.7768 -5.027176,4.70256 -1.671885,0.76694 -3.753002,0.81457 -35.993588,0.82375 l -34.2191033,0.01 z"
   id="path3928"
   inkscape:connector-curvature="0" /><path
   style="fill:#ff0000;stroke-width:0.44362149"
   d="m 224.6433,296.77283 c -0.88201,-0.32915 -2.1796,-1.01609 -2.88354,-1.52652 -0.70393,-0.51043 -15.87918,-15.56536 -33.72277,-33.45539 -26.66149,-26.73087 -32.54507,-32.84355 -33.01624,-34.30182 -0.76704,-2.374 -0.68503,-5.38171 0.20478,-7.51031 0.9311,-2.22737 9.7319,-11.08169 11.92587,-11.99839 2.1407,-0.89444 6.20871,-0.86182 8.23386,0.066 0.98725,0.45232 8.5904,7.67606 19.47127,18.4996 l 17.85156,17.75751 0.11511,-113.98912 0.11512,-113.989129 0.97201,-1.816488 c 1.24371,-2.32424 3.65507,-4.438932 5.78586,-5.0740503 1.03574,-0.3087179 4.38326,-0.4428058 8.80589,-0.3527274 7.04901,0.1435711 7.16101,0.1614366 9.29644,1.4830357 1.57207,0.972942 2.49948,1.984741 3.40105,3.710535 l 1.23958,2.372821 V 130.38665 c 0,62.55604 0.15067,113.73826 0.33482,113.73826 0.18415,0 8.21925,-7.90579 17.85576,-17.56843 11.59096,-11.62237 18.12152,-17.85006 19.29543,-18.40055 2.37634,-1.11435 6.38986,-1.11862 8.55739,-0.009 0.90525,0.46338 3.84981,3.10847 6.54346,5.87798 4.99801,5.13877 5.97488,6.76998 5.9687,9.96677 -0.008,3.9883 1.00455,2.85909 -34.08339,38.02092 -19.24447,19.285 -33.83254,33.56122 -34.81671,34.07244 -2.20787,1.14687 -5.42544,1.4439 -7.45131,0.68788 z"
   id="path3930"
   inkscape:connector-curvature="0" /><path
   style="fill:#ffffff;stroke-width:0.44362149"
   d="m 223.56128,296.02493 c -1.18368,-0.58592 -12.87076,-11.99696 -34.18969,-33.38217 -17.81519,-17.87056 -32.83511,-33.13367 -33.37761,-33.91802 -1.2372,-1.78876 -1.64869,-5.07442 -0.9568,-7.63971 0.43493,-1.61256 1.46481,-2.90876 5.70401,-7.17905 2.84529,-2.86614 5.77214,-5.44408 6.50411,-5.72874 1.97874,-0.76953 6.46161,-0.66644 8.11103,0.18651 0.77291,0.39969 9.44524,8.64652 19.27183,18.32627 l 17.86654,17.59957 0.26995,-33.68667 c 0.14848,-18.52766 0.2982,-69.87351 0.33272,-114.101879 l 0.0628,-80.415212 1.05645,-1.673532 c 1.29796,-2.056103 3.93052,-4.4181825 5.30998,-4.7644033 0.56468,-0.1417269 4.51914,-0.1945188 8.78769,-0.1173152 7.61663,0.1377592 7.79525,0.1630715 9.60343,1.3609015 1.07872,0.7146 2.39597,2.185709 3.17779,3.548972 l 1.33535,2.32844 0.004,113.678008 c 0.002,62.5229 0.15597,113.67801 0.3415,113.67801 0.18554,0 3.92859,-3.61218 8.3179,-8.02705 4.38932,-4.41488 12.61342,-12.48151 18.2758,-17.92585 9.63738,-9.26627 10.43679,-9.92914 12.51058,-10.3739 2.67588,-0.57387 5.64142,-0.10476 7.41983,1.17371 2.1851,1.57085 9.7614,9.56869 10.60733,11.19753 1.29369,2.49099 1.1194,5.68399 -0.43786,8.02186 -2.19241,3.29139 -66.31803,67.2483 -68.21811,68.03863 -2.2895,0.9523 -5.52716,0.86604 -7.69068,-0.20491 z"
   id="path3932"
   inkscape:connector-curvature="0" /><path
   style="fill:#ffffff;stroke-width:0.44362149"
   d="M 31.718937,158.96797 C 13.515473,158.79656 5.956622,158.5799 5.3234579,158.21142 3.8367514,157.3462 2.0856297,155.27455 1.260102,153.40431 c -0.6474841,-1.46688 -0.77839245,-3.01376 -0.75517503,-8.92356 0.0262929,-6.69263 0.0960422,-7.27074 1.09244403,-9.05459 0.5853969,-1.04802 1.8313377,-2.52224 2.7687575,-3.27602 l 1.7043996,-1.37052 13.3787309,-0.36223 c 7.358303,-0.19922 31.644847,-0.27471 53.970098,-0.16775 44.748723,0.2144 42.287543,0.0492 45.116003,3.0279 2.47603,2.60754 2.88922,4.25432 2.88922,11.51508 0,5.47419 -0.13584,6.80257 -0.86322,8.44135 -1.23969,2.79302 -4.01329,5.14955 -6.40519,5.44205 -3.0495,0.37291 -54.492553,0.5551 -82.437233,0.29195 z"
   id="path3934"
   inkscape:connector-curvature="0" /><path
   style="fill:#ffffff;stroke-width:0.44362149"
   d="M 5.4563514,95.139442 C 2.3237321,93.104138 1.097635,90.93995 0.58784621,86.546027 0.35317652,84.523385 0.29157608,80.855543 0.45095638,78.395268 0.79014813,73.159332 1.6142813,71.291148 4.5841476,69.025955 L 6.5014855,67.563553 H 70.490453 134.47942 l 1.81534,1.553862 c 0.99844,0.854624 2.28205,2.501569 2.85248,3.659877 0.94743,1.923816 1.03715,2.681708 1.03715,8.760339 0,7.918416 -0.34995,9.180136 -3.38923,12.219411 l -2.19829,2.198287 -43.342873,5.32e-4 C 67.415415,95.956148 38.827971,96.077402 27.726343,96.22531 L 7.5415654,96.494233 Z"
   id="path3936"
   inkscape:connector-curvature="0" /><path
   style="fill:#ffffff;stroke-width:0.44362149"
   d="M 5.4563514,32.145429 C 2.3272836,30.112074 1.0986399,27.945641 0.58265331,23.551775 -0.00621017,18.537328 0.47607431,11.55945 1.5581104,9.4384838 2.4678413,7.655264 4.3906177,5.8470165 6.5820715,4.7137717 7.8314099,4.0677136 14.460637,4.0254486 79.615529,4.248142 c 48.955461,0.1673252 72.142221,0.3952075 73.183311,0.7192543 1.70434,0.5304892 4.21479,2.7506394 5.16826,4.5706166 0.87641,1.6728901 0.89457,16.1582481 0.0229,18.2445141 -0.33259,0.796001 -1.55847,2.286812 -2.72418,3.312912 l -2.1195,1.865638 h -49.55016 c -27.252591,0 -60.013658,0.121361 -72.802374,0.269691 L 7.5415654,33.500459 Z"
   id="path3938"
   inkscape:connector-curvature="0" /><path
   style="fill:#ffffff;stroke-width:0.44362149"
   d="m 5.6567463,228.14172 c -1.3656644,-0.7832 -2.8331131,-2.09796 -3.5489722,-3.17969 l -1.22053111,-1.84435 v -8.53093 -8.53094 l 1.37381731,-1.70475 c 0.7555996,-0.93762 2.1530073,-2.24711 3.1053504,-2.90998 l 1.7315332,-1.20522 44.2668501,-0.0147 c 49.019376,-0.0163 44.783076,-0.26597 48.155176,2.83779 2.6153,2.40718 2.73478,2.93616 2.73478,12.10749 v 8.34977 l -1.37791,1.67165 c -0.75785,0.9194 -2.404797,2.26061 -3.659878,2.98045 L 94.935,229.47707 H 51.460093 7.9851869 Z"
   id="path3940"
   inkscape:connector-curvature="0" /><path
   style="fill:#ffffff;stroke-width:0.44362149"
   d="m 5.6567463,291.17197 c -1.3246036,-0.78013 -2.8546364,-2.16568 -3.5489722,-3.21383 -1.19999809,-1.81149 -1.22286115,-1.97492 -1.35903378,-9.7146 -0.15297941,-8.69494 0.13476578,-9.93907 2.87050888,-12.41128 3.1311128,-2.8295 0.234947,-2.63163 38.5180008,-2.63163 h 34.848709 l 1.654765,1.05598 c 4.340296,2.76972 5.128079,4.79381 5.114087,13.13991 -0.01269,7.5642 -0.477412,9.63173 -2.654312,11.80863 -3.081781,3.08178 -1.159205,2.92667 -38.956457,3.14282 l -34.1588551,0.19535 z"
   id="path3942"
   inkscape:connector-curvature="0" /></svg>